<?xml version="1.0" encoding="UTF-8"?>
<svg version="1.1" xmlns="http://www.w3.org/2000/svg" width="64" height="64">
<path d="M0 0 C5.74878489 4.38952773 10.86633901 11.51318808 12.05078125 18.75 C12.80065902 29.88752877 12.46271824 39.28401149 5.42578125 48.5 C-0.16912254 54.52308521 -7.32027455 58.43833819 -15.48828125 58.98828125 C-26.20542141 59.27952927 -35.14630209 58.2120695 -43.34765625 50.59375 C-51.3869265 41.33878523 -52.67841391 32.52227501 -52.12841797 20.69873047 C-51.44383799 13.25415642 -47.5350846 6.60212923 -41.94921875 1.75 C-29.18967617 -7.17360414 -13.43737558 -8.61715468 0 0 Z " fill="#D7EAFF" transform="translate(51.94921875,5.25)"/>
<path d="M0 0 C1.9375 1.5625 1.9375 1.5625 3 3 C2.484375 3.515625 1.96875 4.03125 1.4375 4.5625 C-0.62076292 8.05259799 0.03618232 10.14472927 1 14 C2.42675173 16.38028291 2.42675173 16.38028291 4 18 C0.25 23.75 0.25 23.75 -2 26 C-16.00837614 27.93575662 -16.00837614 27.93575662 -21.45703125 24.41015625 C-25.22417339 19.34147108 -25.82438888 13.8764176 -25.4296875 7.6875 C-25 5 -25 5 -23.75 1.75 C-19.7851135 -0.77310959 -16.28496761 -0.32584178 -11.6796875 -0.078125 C-7.39408744 0.04681961 -4.58634901 -0.96554716 0 0 Z " fill="#037CFF" transform="translate(42,22)"/>
<path d="M0 0 C-0.37047118 2.74148672 -0.68587944 4.58593199 -2.375 6.8125 C-4 8 -4 8 -7 8 C-6.62952882 5.25851328 -6.31412056 3.41406801 -4.625 1.1875 C-3 0 -3 0 0 0 Z " fill="#1082FF" transform="translate(38,13)"/>
</svg>
